<?xml version="1.0" encoding="UTF-8" standalone="no"?>
<!-- Created with Inkscape (http://www.inkscape.org/) -->

<svg
   version="1.1"
   id="svg62"
   width="151.88687"
   height="62.549606"
   viewBox="0 0 151.88687 62.549609"
   sodipodi:docname="warbler_display_simple.svg"
   inkscape:version="1.2.2 (b0a8486541, 2022-12-01)"
   inkscape:export-filename="warbler_display_new.webp"
   inkscape:export-xdpi="2775.3408"
   inkscape:export-ydpi="2775.3408"
   xmlns:inkscape="http://www.inkscape.org/namespaces/inkscape"
   xmlns:sodipodi="http://sodipodi.sourceforge.net/DTD/sodipodi-0.dtd"
   xmlns="http://www.w3.org/2000/svg"
   xmlns:svg="http://www.w3.org/2000/svg">
  <defs
     id="defs66">
    <linearGradient
       id="linearGradient11142"
       inkscape:swatch="solid">
      <stop
         style="stop-color:#93a49b;stop-opacity:1;"
         offset="0"
         id="stop11140" />
    </linearGradient>
    <inkscape:path-effect
       effect="bspline"
       id="path-effect712"
       is_visible="true"
       lpeversion="1"
       weight="33.333333"
       steps="2"
       helper_size="0"
       apply_no_weight="true"
       apply_with_weight="true"
       only_selected="false" />
  </defs>
  <sodipodi:namedview
     id="namedview64"
     pagecolor="#ffffff"
     bordercolor="#000000"
     borderopacity="0.25"
     inkscape:showpageshadow="2"
     inkscape:pageopacity="0"
     inkscape:pagecheckerboard="0"
     inkscape:deskcolor="#d1d1d1"
     showgrid="false"
     inkscape:zoom="8"
     inkscape:cx="79"
     inkscape:cy="22.5625"
     inkscape:window-width="2516"
     inkscape:window-height="1356"
     inkscape:window-x="0"
     inkscape:window-y="0"
     inkscape:window-maximized="1"
     inkscape:current-layer="g68" />
  <g
     inkscape:groupmode="layer"
     inkscape:label="Warbler"
     id="g68"
     transform="matrix(0.3594002,0,0,0.33641249,3.8635973,4.6316802)"
     style="display:inline">
    <path
       style="display:inline;fill:#474747;fill-opacity:1;stroke-width:0.445035;stroke-dasharray:none"
       d="m 386.07922,15.781836 c 27.12073,12.665995 25.49407,130.902574 0.29618,136.990144 -25.19789,6.08757 -332.058042,6.54857 -351.092987,0.68846 C -0.63062029,141.97751 9.1221083,22.043214 32.988699,14.636413 65.561131,4.5278247 348.31458,4.0944626 386.07922,15.781836 Z"
       id="path316"
       sodipodi:nodetypes="czcsc"
       inkscape:label="background" />
    <path
       style="display:inline;fill:#ced5c7;fill-opacity:1;stroke-width:0.363118;stroke-dasharray:none"
       d="m 329.18317,110.94032 c -4.70563,0.26956 -14.43955,-2.9401 -20.05273,-5.68075 -6.16744,-3.01127 -11.62523,-6.19257 -13.38775,-13.48516 -0.23723,-0.981548 -2.29488,-3.270505 -2.92695,-5.117881 -0.63207,-1.84738 -2.66996,-6.436089 -3.43685,-8.451395 -1.79317,-4.712283 -13.30697,-24.723761 -19.67192,-24.96943 -7.03347,-0.271468 -7.7633,-1.21094 -2.88767,-3.050286 3.96324,-1.49515 7.94309,-3.52725 9.50914,-5.551488 2.8996,-3.747988 3.4756,-5.562651 8.26013,-8.228537 7.49225,-4.174602 17.49215,-4.86821 31.32593,3.268366 3.43885,2.022615 8.13697,4.825431 3.86921,5.165514 -9.68739,0.771959 -15.60131,2.40629 -18.93863,10.493741 -4.08184,9.891658 -4.44731,18.382229 4.47956,29.387902 3.14019,3.871452 16.41428,12.069533 26.80068,14.958167 2.47989,0.689707 22.76466,5.437127 22.75028,7.603267 -0.0141,2.16617 -4.88255,0.88842 -4.88255,0.88842 -9.82521,5.30137 -14.44731,2.45824 -20.80992,2.76955 z"
       id="path322"
       sodipodi:nodetypes="cssssssssssssszccc"
       inkscape:label="head" />
    <path
       style="display:inline;fill:#6d7774;fill-opacity:1;stroke-width:0.319999;stroke-dasharray:none"
       d="m 342.13388,109.07684 c 0.96183,-0.74839 5.32389,-1.90656 8.34816,-1.88226 3.43263,0.0276 -1.33494,-2.50603 -3.38121,-3.03768 -3.66853,-0.95314 -9.52123,-1.38645 -15.36414,-3.46428 -12.14146,-4.3177 -19.61099,-6.82512 -23.50013,-10.509705 -5.7408,-5.438844 -13.08816,-15.210907 -13.48148,-23.046475 -0.51895,-10.338162 4.75377,-8.55829 8.06033,-1.747956 37.89951,-22.550071 12.30557,-12.747588 27.36182,-8.891153 3.82936,1.922985 2.73958,-3.673417 1.83107,-6.861082 -1.00621,-3.530444 -6.88328,-13.315897 -15.05421,-21.810746 -9.65061,-10.033193 -14.42719,-10.342761 -5.81523,-6.506198 5.64782,2.516064 11.23609,8.039597 16.28132,13.927356 6.70441,7.824015 10.53189,14.773861 11.28925,20.808565 0.24005,1.91286 3.71802,2.148444 12.84583,13.159456 4.70639,5.677397 10.33621,14.579119 12.93463,18.157861 5.42869,7.47681 16.92209,32.128727 7.7762,29.609577 -3.46851,-0.95537 -6.52522,-3.46415 -14.06218,-5.0989 -10.47923,-2.27292 -10.12434,-1.10721 -10.63059,2.7524 -0.95293,7.26502 -2.2207,17.02033 -2.64321,23.28519 -0.52383,7.76726 -0.62203,16.9822 -0.99385,17.86386 l -16.50453,0.4658 -18.07868,0.29469 c 7.00102,-10.94287 12.83868,-31.84626 16.44229,-45.9627 11.08366,-1.54043 14.39127,0.01 16.33854,-1.50562 z"
       id="path318"
       sodipodi:nodetypes="ssssssccsssssssssssccccs"
       inkscape:label="dark_grey" />
    <path
       style="display:inline;fill:#ced5c7;fill-opacity:1;stroke-width:0.999997;stroke-dasharray:none"
       d="m 327.75927,111.15313 c -1.67323,14.5407 -3.18122,31.35002 -11.65455,45.28243 l 10.20371,-0.21401 10.87969,-0.28141 c 2.41961,-8.57132 0.46505,-19.13106 -1.55544,-29.72832 -2.02049,-10.59729 -7.72158,-16.37819 -7.8165,-15.55325 z"
       id="path1889"
       sodipodi:nodetypes="sccczss" />
    <path
       style="display:inline;fill:#93a49b;fill-opacity:1;stroke-width:0.363118;stroke-dasharray:none"
       d="m 282.41828,68.816988 c -5.10571,-9.417618 -7.39711,-13.752828 -12.39614,-14.414169 -10.27751,-1.359651 -10.08105,-2.253445 -1.81496,-5.304977 2.81093,-1.037689 6.44785,-2.308852 7.76265,-4.173442 4.5042,-6.387597 6.98728,-8.852176 14.44251,-10.980659 4.30305,-1.228533 8.47863,-0.377767 11.2568,-0.104505 6.77901,0.666788 13.7076,4.272791 22.29103,9.763371 3.13464,2.005138 12.47706,9.477882 16.39782,13.258335 8.09771,7.807964 29.15296,36.985537 19.76056,36.737361 -2.36758,-0.06257 -13.37994,-6.315253 -18.36832,-5.348166 -4.0743,0.789877 10.34576,10.910298 2.43007,10.430137 -18.3229,-1.111432 -26.73338,-6.407416 -34.83495,-12.45174 -11.57238,-8.633783 -13.48373,-27.348493 -10.72306,-31.14837 9.14587,-12.588685 20.20995,-8.042087 17.63954,-11.144524 -5.05859,-6.105618 -12.60631,-9.998422 -17.89112,-10.437875 -6.11029,-0.508096 -10.94499,1.407904 -14.76852,3.521072 -2.18628,1.2083 -4.82282,4.660059 -6.76407,7.429035 -1.45523,2.07572 -1.86086,2.752643 -5.61227,4.408437 -2.85709,1.26106 -7.60941,2.700525 -7.38349,3.277794 0.25171,0.64322 5.35868,0.743882 9.80055,1.211024 6.40275,0.673359 12.2587,9.405488 16.87316,23.219197 2.54881,7.630038 6.36186,13.46755 12.17405,20.27575 1.52281,1.78377 3.27431,5.033016 6.81141,6.242056 2.57443,0.87999 1.98492,-3.532385 3.45793,-3.03556 5.34158,1.80162 6.3214,6.90883 8.8921,7.99075 3.37774,1.42157 0.5852,-3.74323 2.14143,-3.41704 3.89833,0.81703 5.14765,4.41644 6.9813,4.77187 2.71498,0.52622 -1.17807,-3.32694 0.34364,-3.21363 3.39566,0.25281 5.46431,3.59624 6.80741,3.64374 1.71358,0.0607 -2.48192,-3.63145 -0.90789,-3.7468 4.50707,-0.33031 10.25616,1.99354 7.77048,3.75338 -2.4857,1.75983 -14.918,6.69687 -29.89402,1.25508 -14.97601,-5.44132 -19.92931,-9.6808 -23.10367,-17.015748 -3.17434,-7.33495 -5.57056,-17.870491 -9.57196,-25.251184 z"
       id="path592"
       sodipodi:nodetypes="sssssssssssssssssssssssssssssszzcs"
       inkscape:label="body_dark_green" />
    <path
       style="display:inline;fill:#ced5c7;fill-opacity:1;stroke-width:0.0624998;stroke-dasharray:none"
       d="m 329.47542,44.330785 c -0.4101,-0.578372 -0.80461,-1.514625 -2.63882,-4.251823 -0.85572,-1.276986 -1.85171,-2.801157 -2.26321,-3.374913 -2.88806,-4.026843 -5.97538,-7.214554 -12.13037,-12.5248 -2.29869,-1.9832 -4.11947,-3.283877 -7.79213,-5.566307 -7.32539,-4.552473 -8.4199,-5.271252 -8.26898,-5.430323 0.25787,-0.271801 6.80883,2.802789 10.52622,4.782722 2.71201,1.444452 6.169,3.831478 8.3862,5.635923 2.0759,1.689445 5.56711,4.953763 8.68488,8.356911 2.69332,2.939839 5.15368,6.961776 6.08896,9.446459 0.59615,1.583725 2.20462,5.878346 1.5316,6.513349 -0.22179,0.209262 -1.77972,-3.101156 -2.12435,-3.587198 z"
       id="path1965"
       sodipodi:nodetypes="ssssssssssss" />
    <path
       style="display:inline;fill:#535a58;fill-opacity:1;stroke-width:0.347527;stroke-dasharray:none"
       d="m 297.16573,42.179032 c 1.16574,0.801575 1.44539,3.021739 0.11507,3.943001 -3.31093,2.292836 -5.32592,1.424435 -6.261,0.02923 -1.02972,-1.53641 -1.079,-3.50135 1.15099,-4.612049 1.35498,-0.847255 3.28435,-0.536402 4.41202,0.238992 z"
       id="path1978"
       sodipodi:nodetypes="ssscss"
       inkscape:label="eye_grey" />
  </g>
  <text
     xml:space="preserve"
     style="font-style:normal;font-variant:normal;font-weight:normal;font-stretch:normal;font-size:17.3333px;font-family:'Fira Code';-inkscape-font-specification:'Fira Code';display:inline;opacity:1;fill:#ced5c7;fill-opacity:1;stroke:#ced5c7;stroke-width:0.599999;stroke-linecap:round;stroke-linejoin:bevel;stroke-miterlimit:0;stroke-dasharray:none;stroke-dashoffset:0;stroke-opacity:1;paint-order:normal"
     x="21.624901"
     y="28.822596"
     id="text11639"><tspan
       sodipodi:role="line"
       style="font-style:normal;font-variant:normal;font-weight:normal;font-stretch:normal;font-size:17.3333px;font-family:'Fira Code';-inkscape-font-specification:'Fira Code';fill:#ced5c7;fill-opacity:1;stroke:#ced5c7;stroke-width:0.599999;stroke-dasharray:none;stroke-opacity:1"
       x="21.624901"
       y="28.822596"
       id="tspan11641">Warbler</tspan></text>
  <text
     xml:space="preserve"
     style="font-style:normal;font-variant:normal;font-weight:normal;font-stretch:normal;font-size:17.3333px;font-family:'Fira Code';-inkscape-font-specification:'Fira Code';opacity:1;fill:#ced5c7;fill-opacity:1;stroke:#ced5c7;stroke-width:0.6;stroke-linecap:round;stroke-linejoin:bevel;stroke-miterlimit:0;stroke-dasharray:none;stroke-dashoffset:0;stroke-opacity:1;paint-order:normal"
     x="24.238235"
     y="47.136414"
     id="text13406"><tspan
       sodipodi:role="line"
       id="tspan13404"
       x="24.238235"
       y="47.136414">Grass</tspan></text>
</svg>
