<?xml version="1.0" encoding="UTF-8" standalone="no"?>
<!-- Created with Inkscape (http://www.inkscape.org/) -->

<svg
   version="1.1"
   id="svg62"
   width="151.88687"
   height="62.549606"
   viewBox="0 0 151.88687 62.549609"
   sodipodi:docname="warbler_display.svg"
   inkscape:version="1.2.2 (b0a8486541, 2022-12-01)"
   inkscape:export-filename="warbler_display.png"
   inkscape:export-xdpi="693.83521"
   inkscape:export-ydpi="693.83521"
   xmlns:inkscape="http://www.inkscape.org/namespaces/inkscape"
   xmlns:sodipodi="http://sodipodi.sourceforge.net/DTD/sodipodi-0.dtd"
   xmlns="http://www.w3.org/2000/svg"
   xmlns:svg="http://www.w3.org/2000/svg">
  <defs
     id="defs66">
    <linearGradient
       id="linearGradient11142"
       inkscape:swatch="solid">
      <stop
         style="stop-color:#93a49b;stop-opacity:1;"
         offset="0"
         id="stop11140" />
    </linearGradient>
    <inkscape:path-effect
       effect="bspline"
       id="path-effect712"
       is_visible="true"
       lpeversion="1"
       weight="33.333333"
       steps="2"
       helper_size="0"
       apply_no_weight="true"
       apply_with_weight="true"
       only_selected="false" />
  </defs>
  <sodipodi:namedview
     id="namedview64"
     pagecolor="#ffffff"
     bordercolor="#000000"
     borderopacity="0.25"
     inkscape:showpageshadow="2"
     inkscape:pageopacity="0"
     inkscape:pagecheckerboard="0"
     inkscape:deskcolor="#d1d1d1"
     showgrid="false"
     inkscape:zoom="11.313709"
     inkscape:cx="80.875338"
     inkscape:cy="38.404737"
     inkscape:window-width="2516"
     inkscape:window-height="1356"
     inkscape:window-x="0"
     inkscape:window-y="0"
     inkscape:window-maximized="1"
     inkscape:current-layer="svg62" />
  <g
     inkscape:groupmode="layer"
     inkscape:label="Warbler"
     id="g68"
     transform="matrix(0.3594002,0,0,0.33641249,3.8635973,4.6316802)"
     style="display:inline">
    <path
       style="display:inline;fill:#474747;fill-opacity:1;stroke-width:0.445035;stroke-dasharray:none"
       d="m 380.47856,15.705545 c 27.12073,12.665995 25.49407,130.902575 0.29618,136.990145 -25.19789,6.08757 -332.058042,6.54857 -351.092987,0.68846 C -6.2312805,141.90122 3.5214481,21.966923 27.388039,14.560122 59.960471,4.4515336 342.71392,4.0181715 380.47856,15.705545 Z"
       id="path316"
       sodipodi:nodetypes="czcsc"
       inkscape:label="background" />
    <path
       style="display:inline;fill:#ced5c7;fill-opacity:1;stroke-width:0.319999;stroke-dasharray:none"
       d="m 326.29255,110.04055 c -4.07135,0.24196 -12.49324,-2.63902 -17.34982,-5.09901 -5.33613,-2.7029 -10.05826,-5.558426 -11.58322,-12.104221 -0.20525,-0.881033 -1.98555,-2.93559 -2.53242,-4.593787 -0.54687,-1.658199 -2.31008,-5.777004 -2.9736,-7.585933 -1.55147,-4.229724 -9.048,-21.970954 -14.55503,-22.191465 -6.08542,-0.243669 -7.66873,-0.956712 -3.42391,-2.528644 6.33833,-2.347192 5.9473,-2.039198 7.30535,-3.853501 2.75556,-3.681316 4.27877,-4.567746 6.09201,-5.779702 8.46089,-5.655205 18.8414,-5.690307 30.81053,1.613046 2.97532,1.81549 3.77012,2.485964 0.0776,2.791221 -8.38162,0.692907 -13.4984,2.159876 -16.38588,9.419134 -3.53165,8.878708 -3.84786,16.499805 3.87575,26.378447 2.71693,3.474998 14.2018,10.833557 23.18822,13.426382 2.14563,0.619083 19.69621,4.880343 19.68376,6.824663 -0.0122,1.94434 -4.22443,0.79744 -4.22443,0.79744 -8.50086,4.75848 -12.49995,2.2065 -18.00494,2.48593 z"
       id="path322"
       sodipodi:nodetypes="cssssssssssssszccc"
       inkscape:label="head" />
    <path
       style="display:inline;fill:#6d7774;fill-opacity:1;stroke-width:0.319999;stroke-dasharray:none"
       d="m 340.67405,108.60145 c 0.96183,-0.74839 1.18306,-1.50746 4.20733,-1.48316 3.43263,0.0276 -1.33494,-2.50603 -3.38121,-3.03768 -3.66853,-0.95314 -9.52123,-1.38645 -15.36414,-3.46428 -12.14146,-4.317701 -15.9343,-7.619436 -19.82344,-11.304021 -5.7408,-5.438844 -6.95507,-8.911698 -8.0824,-16.665549 -0.42826,-2.945635 -0.34939,-7.090299 2.95717,-0.279965 11.39252,-10.892297 29.35925,-16.462366 19.924,-22.809467 -7.78339,-5.235896 -20.82402,-9.870594 -28.52122,-7.280576 -6.38595,2.148795 -8.12183,3.482465 -12.04048,9.250612 -1.09843,1.616863 -1.82359,2.005472 -6.99932,3.75088 -7.24518,2.443286 -6.66067,2.598564 1.42798,3.926417 4.74036,0.77819 6.55024,1.884081 10.96775,10.337294 3.46205,6.624876 7.20016,16.107183 8.90302,22.046604 2.33083,8.129745 7.71338,12.612851 19.27121,16.791371 0,0 5.9428,2.2789 13.16365,2.7621 7.22086,0.4832 11.44283,-1.02534 13.3901,-2.54058 z m -36.92166,47.86742 c 7.00102,-10.94287 9.89205,-16.09122 12.124,-21.70721 5.80484,-14.60607 5.86515,-21.41814 0.92686,-23.16012 -4.24054,-1.49585 -7.96123,-2.79411 -10.9038,-4.40752 -2.79675,-1.53345 -5.47262,-3.11933 -7.37722,-4.93186 -2.96018,-2.817136 -4.44993,-6.286499 -5.75442,-11.249877 -1.51911,-5.779938 -6.02384,-16.827976 -6.56836,-17.999833 -3.68162,-7.923062 -7.0943,-12.566992 -11.36768,-13.06459 -9.08382,-1.05773 -10.29837,-2.63983 -2.25582,-5.446333 5.43619,-1.896998 6.65086,-1.821368 8.14076,-4.296069 4.9267,-8.183153 13.36194,-10.867654 21.99527,-9.360564 7.49989,1.309227 11.42852,3.115375 21.51628,9.756794 3.60223,2.371579 3.08789,2.145935 2.17938,-1.04173 -1.00621,-3.530444 -6.88328,-13.315897 -15.05421,-21.810746 -9.65061,-10.033193 -14.42719,-10.342761 -5.81523,-6.506198 5.64782,2.516064 11.23609,8.039597 16.28132,13.927356 6.70441,7.824015 10.53189,14.773861 11.28925,20.808565 0.24005,1.91286 3.71802,2.148444 12.84583,13.159456 4.70639,5.677397 10.52472,14.431613 12.93463,18.157861 4.89455,7.568024 12.87068,30.333228 7.07152,25.732428 -2.87571,-2.28147 -3.69971,-2.539 -13.19849,-4.125 -10.56477,-1.76399 -11.1166,-0.66777 -11.62285,3.19184 -0.95293,7.26502 -1.38745,19.48414 -1.80996,25.749 -0.52383,7.76726 -0.62203,16.9822 -0.99385,17.86386 l -16.50453,0.4658 z"
       id="path318"
       sodipodi:nodetypes="sssssscsssssssscscssssssssssssssssssssssccc"
       inkscape:label="dark_grey" />
    <path
       style="display:inline;fill:#ced5c7;fill-opacity:1;stroke-width:0.999997;stroke-dasharray:none"
       d="m 325.17666,108.38761 c -4.36342,13.88874 -6.29437,34.05486 -14.7677,47.98727 l 10.86603,-0.18571 10.87969,-0.28141 c 2.41961,-8.57132 1.85758,-19.66483 -0.16287,-30.26209 -2.02049,-10.59729 -6.45136,-18.41592 -6.81513,-17.25805 z"
       id="path1889"
       sodipodi:nodetypes="sccczss" />
    <path
       style="display:inline;fill:#93a49b;fill-opacity:1;stroke-width:0.319999;stroke-dasharray:none"
       d="m 295.1707,93.25225 c -1.93193,-6.847652 -5.81393,-16.409282 -9.27598,-23.034158 -4.41751,-8.453212 -6.46367,-10.331726 -10.78888,-10.925342 -8.8922,-1.220417 -8.80068,-1.57122 -1.5555,-4.014506 5.17573,-1.745408 5.90089,-2.134017 6.99932,-3.75088 3.91865,-5.768147 5.66777,-7.062881 12.04048,-9.250612 9.21294,-3.162774 19.25709,0.73451 29.18342,7.321777 2.71212,1.799799 10.79528,8.507303 14.18755,11.90062 7.00623,7.008394 25.80941,34.698227 17.68301,34.475465 -2.04845,-0.05616 -10.37482,-5.803057 -14.69082,-4.935004 -3.52512,0.70899 9.20545,8.756654 2.35672,8.325664 -15.85316,-0.997617 -26.23445,-5.590922 -33.24402,-11.01628 -10.01253,-7.749644 -10.60358,-25.03751 -8.21502,-28.448262 7.91309,-11.299547 19.72199,-8.902698 16.74667,-10.718187 -11.96914,-7.303354 -20.34934,-7.765753 -28.77693,-2.884824 -1.8873,1.09305 -3.77921,2.638803 -5.23341,5.281424 -1.07838,1.959677 0.17862,1.84342 -6.20448,4.06594 -2.55709,0.890349 -3.87903,1.187147 -3.68357,1.705302 0.21779,0.577351 1.67536,0.423999 5.51851,0.843304 5.53972,0.604405 9.74254,8.862542 13.73502,21.261664 2.20525,6.848687 5.0352,12.769057 10.40716,18.466716 1.41613,1.501983 3.72757,4.276529 6.78791,5.361749 2.22742,0.78987 1.83331,-3.467396 3.10778,-3.02145 4.62159,1.61713 5.46933,6.20133 7.69353,7.17246 2.92246,1.276 0.50632,-3.3599 1.85279,-3.06712 3.37287,0.73337 4.4538,3.96418 6.04029,4.28321 2.34903,0.47234 -1.01928,-2.98624 0.29732,-2.88454 2.93796,0.22692 4.72777,3.22797 5.88983,3.27061 1.48261,0.0545 -2.14738,-3.25958 -0.78551,-3.36311 3.89956,-0.29649 8.87374,1.78939 6.72309,3.36901 -2.15065,1.57962 -12.59924,5.09079 -25.55664,0.20627 -12.95739,-4.88411 -17.93153,-11.360803 -19.23965,-15.997339 z m 3.50739,-41.716179 c -0.52356,1.341911 -6.04536,1.539938 -6.39306,-0.0462 -0.13769,-0.628093 0.98799,-2.606251 1.5075,-3.158631 0.86441,-0.919088 3.70389,-0.445332 4.2133,-0.09844 0.50942,0.346881 0.91317,2.685812 0.67226,3.303284 z"
       id="path592"
       sodipodi:nodetypes="ssssssssssssssssssssssssssssszzsssszcss"
       inkscape:label="body_dark_green" />
    <path
       style="display:inline;fill:#ced5c7;fill-opacity:1;stroke-width:0.0624998;stroke-dasharray:none"
       d="m 323.87476,44.254494 c -0.4101,-0.578372 -0.80461,-1.514625 -2.63882,-4.251823 -0.85572,-1.276986 -1.85171,-2.801157 -2.26321,-3.374913 -2.88806,-4.026843 -5.97538,-7.214554 -12.13037,-12.5248 -2.29869,-1.9832 -4.11947,-3.283877 -7.79213,-5.566307 -7.32539,-4.552473 -8.4199,-5.271252 -8.26898,-5.430323 0.25787,-0.271801 6.80883,2.802789 10.52622,4.782722 2.71201,1.444452 6.169,3.831478 8.3862,5.635923 2.0759,1.689445 5.56711,4.953763 8.68488,8.356911 2.69332,2.939839 5.15368,6.961776 6.08896,9.446459 0.59615,1.583725 2.20462,5.878346 1.5316,6.513349 -0.22179,0.209262 -1.77972,-3.101156 -2.12435,-3.587198 z"
       id="path1965"
       sodipodi:nodetypes="ssssssssssss" />
    <path
       style="display:inline;fill:#535a58;fill-opacity:1;stroke-width:0.347527;stroke-dasharray:none"
       d="m 294.31464,49.067594 c 0.47414,-0.539376 1.77481,-0.604037 2.53803,-0.460369 0.9908,0.18651 1.25275,1.760002 0.57106,2.508358 -1.08889,1.195355 -3.57522,0.533407 -3.79954,-0.04933 -0.18154,-0.471596 0.42697,-1.698916 0.69045,-1.998649 z"
       id="path1978"
       sodipodi:nodetypes="sssss"
       inkscape:label="eye_grey" />
  </g>
  <text
     xml:space="preserve"
     style="font-style:normal;font-variant:normal;font-weight:normal;font-stretch:normal;font-size:17.3333px;font-family:'Fira Code';-inkscape-font-specification:'Fira Code';display:inline;opacity:1;fill:#ced5c7;fill-opacity:1;stroke:#ced5c7;stroke-width:0.599999;stroke-linecap:round;stroke-linejoin:bevel;stroke-miterlimit:0;stroke-dasharray:none;stroke-dashoffset:0;stroke-opacity:1;paint-order:normal"
     x="21.624901"
     y="28.822596"
     id="text11639"><tspan
       sodipodi:role="line"
       style="font-style:normal;font-variant:normal;font-weight:normal;font-stretch:normal;font-size:17.3333px;font-family:'Fira Code';-inkscape-font-specification:'Fira Code';fill:#ced5c7;fill-opacity:1;stroke:#ced5c7;stroke-width:0.599999;stroke-dasharray:none;stroke-opacity:1"
       x="21.624901"
       y="28.822596"
       id="tspan11641">Warbler</tspan></text>
  <text
     xml:space="preserve"
     style="font-style:normal;font-variant:normal;font-weight:normal;font-stretch:normal;font-size:17.3333px;font-family:'Fira Code';-inkscape-font-specification:'Fira Code';opacity:1;fill:#ced5c7;fill-opacity:1;stroke:#ced5c7;stroke-width:0.6;stroke-linecap:round;stroke-linejoin:bevel;stroke-miterlimit:0;stroke-dasharray:none;stroke-dashoffset:0;stroke-opacity:1;paint-order:normal"
     x="24.238235"
     y="47.136414"
     id="text13406"><tspan
       sodipodi:role="line"
       id="tspan13404"
       x="24.238235"
       y="47.136414">Grass</tspan></text>
</svg>
